<svg width="49" height="65" viewBox="0 0 49 65" fill="none" xmlns="http://www.w3.org/2000/svg">
<path d="M30.7839 37.3267L30.6766 37.434H30.5693L30.4621 37.5413H30.3548L30.1403 37.7558H30.033L29.9258 37.863H29.8185L29.7112 37.9703H29.604L29.3895 38.1848H29.2822L29.1749 38.2921H29.0677L28.9604 38.3993H28.8532L28.6386 38.6139H28.5314L28.4241 38.7211H28.3169L28.1023 38.9356H27.9951L27.8878 39.0429H27.7806L27.6733 39.1502H27.566L27.3515 39.3647H27.2443L27.137 39.4719H27.0297L26.9225 39.5792H26.8152L26.6007 39.7937H26.4934L26.3862 39.901H26.2789L26.0644 40.1155H25.9571L25.8499 40.2228H25.7426L25.6353 40.33H25.5281L25.3136 40.5446H25.2063L25.099 40.6518H24.9918L24.7773 40.8663H24.67L24.5627 40.9736H24.4555L24.3482 41.0809H24.241L24.1337 41.1881H24.0264L23.8119 41.4026H23.7046L23.5974 41.5099H23.4901L23.3829 41.6172H23.2756L22.8466 42.0462V42.1535L22.632 42.368V42.5825L22.5248 42.6898V51.2706L22.632 51.3779V51.5924L22.7393 51.6997V51.8069L22.9538 52.0215V52.1287L23.1683 52.3432H23.2756L23.4901 52.5578H23.5974L23.7046 52.665H23.8119L24.0264 52.8795H24.1337L24.241 52.9868H24.3482L24.5627 53.2013H24.67L24.7773 53.3086H24.8845L24.9918 53.4158H25.099L25.3136 53.6304H25.4208L25.5281 53.7376H25.6353L25.7426 53.8449H25.8499L26.0644 54.0594H26.1716L26.2789 54.1667H26.3862L26.4934 54.2739H26.6007L26.8152 54.4884H26.9225L27.0297 54.5957H27.137L27.3515 54.8102H27.4588L27.566 54.9175H27.6733L27.8878 55.132H27.9951L28.1023 55.2393H28.2096L28.3169 55.3465H28.4241L28.6386 55.5611H28.7459L28.8532 55.6683H28.9604L29.0677 55.7756H29.1749L29.3895 55.9901H29.4967L29.604 56.0974H29.7112L29.8185 56.2046H29.9258L30.1403 56.4191H30.2476L30.3548 56.5264H30.4621L30.5693 56.6337H30.6766L30.7839 56.7409H30.8911L30.9984 56.8482H31.6419L31.7492 56.7409H31.8565L31.9637 56.6337H32.071L32.1782 56.5264H32.2855L32.3928 56.4191H32.5L32.6073 56.3119H32.7145L32.9291 56.0974H33.0363L33.1436 55.9901H33.2509L33.4654 55.7756H33.5726L33.6799 55.6683H33.7872L34.0017 55.4538H34.1089L34.2162 55.3465H34.3235L34.538 55.132H34.6452L34.7525 55.0248H34.8598L34.967 54.9175H35.0743L35.2888 54.703H35.3961L35.5033 54.5957H35.6106L35.8251 54.3812H35.9324L36.0396 54.2739H36.1469L36.3614 54.0594H36.4687L36.5759 53.9521H36.6832L36.7905 53.8449H36.8977L37.1122 53.6304H37.2195L37.434 53.4158H37.5413L37.6485 53.3086H37.7558L37.9703 53.0941H38.0776L38.1848 52.9868H38.2921L38.3994 52.8795H38.5066L38.7211 52.665H38.8284L39.0429 52.4505H39.1502L39.5792 52.0215V51.9142L39.7938 51.6997V51.3779L39.901 51.2706V42.9043L39.7938 42.797V42.5825L39.6865 42.4752V42.368L39.5792 42.2607V42.1535L39.1502 41.7244H39.0429L38.8284 41.5099H38.7211L38.6139 41.4026H38.5066L38.3994 41.2954H38.2921L38.0776 41.0809H37.9703L37.8631 40.9736H37.7558L37.5413 40.7591H37.434L37.3268 40.6518H37.2195L37.005 40.4373H36.8977L36.7905 40.33H36.6832L36.5759 40.2228H36.4687L36.2542 40.0083H36.1469L36.0396 39.901H35.9324L35.7178 39.6865H35.6106L35.5033 39.5792H35.3961L35.2888 39.4719H35.1815L34.967 39.2574H34.8598L34.7525 39.1502H34.6452L34.538 39.0429H34.4307L34.2162 38.8284H34.1089L34.0017 38.7211H33.8944L33.6799 38.5066H33.5726L33.4654 38.3993H33.3581L33.2509 38.2921H33.1436L32.9291 38.0776H32.8218L32.7145 37.9703H32.6073L32.3928 37.7558H32.2855L32.1782 37.6485H32.071L31.9637 37.5413H31.8565L31.6419 37.3267H30.7839Z" fill="#FEC524"/>
<mask id="path-2-inside-1_26_142" fill="white">
<path d="M2.89604 0V0.107261L2.78878 0.214521V0.321782L2.57426 0.536304V0.643564L2.35974 0.858086V0.965347L2.25248 1.07261V1.17987L2.03795 1.39439V1.50165L1.93069 1.60891V1.71617L1.82343 1.82343V1.93069L1.71617 2.03795V2.14521L1.60891 2.25248V2.35974L1.50165 2.467V2.57426L1.39439 2.68152V2.78878L1.28713 2.89604V3.0033L1.17987 3.11056V3.21782L1.07261 3.32508V3.5396L0.965347 3.64686V3.86139L0.858086 3.96865V4.07591L0.750825 4.18317V4.50495L0.643564 4.61221V4.82673L0.536304 4.93399V5.25578L0.429043 5.36304V5.79208L0.321782 5.89934V6.32838L0.214521 6.43564V6.97195L0.107261 7.07921V7.93729L0 8.04455V11.2624L0.107261 11.3696V12.2277L0.214521 12.335V12.8713L0.321782 12.9785V13.4076L0.429043 13.5149V13.8366L0.536304 13.9439V14.2657L0.643564 14.3729V14.6947L0.750825 14.802V14.9092L0.858086 15.0165V15.231L0.965347 15.3383V15.5528L1.07261 15.6601V15.7673L1.17987 15.8746V15.9818L1.28713 16.0891V16.1964L1.39439 16.3036V16.4109L1.50165 16.5182V16.6254L1.60891 16.7327V16.8399L1.82343 17.0545V17.1617L2.03795 17.3762V17.4835L2.35974 17.8053V17.9125L3.96865 19.5215H4.07591L4.39769 19.8432H4.50495L4.71947 20.0578H4.82673L5.04125 20.2723H5.14851L5.25578 20.3795H5.36304L5.57756 20.5941H5.68482L5.79208 20.7013H5.89934L6.0066 20.8086H6.11386L6.22112 20.9158H6.32838L6.43564 21.0231H6.5429L6.65017 21.1304H6.75743L6.86469 21.2376H6.97195L7.07921 21.3449H7.18647L7.29373 21.4521H7.40099L7.50825 21.5594H7.72277L7.83003 21.6667H7.93729L8.04455 21.7739H8.25908L8.36634 21.8812H8.4736L8.58086 21.9884H8.79538L8.90264 22.0957H9.0099L9.11716 22.203H9.33168L9.43894 22.3102H9.65347L9.76073 22.4175H9.97525L10.0825 22.5248H10.1898L10.297 22.632H10.5116L10.6188 22.7393H10.8333L10.9406 22.8465H11.1551L11.2624 22.9538H11.4769L11.5842 23.0611H11.6914L11.7987 23.1683H12.0132L12.1205 23.2756H12.335L12.4422 23.3828H12.5495L12.6568 23.4901H12.8713L12.9785 23.5974H13.1931L13.3003 23.7046H13.4076L13.5149 23.8119H13.7294L13.8366 23.9191H13.9439L14.0512 24.0264H14.2657L14.3729 24.1337H14.4802L14.5875 24.2409H14.802L14.9092 24.3482H15.0165L15.1238 24.4554H15.3383L15.4455 24.5627H15.5528L15.6601 24.67H15.8746L15.9818 24.7772H16.0891L16.1964 24.8845H16.3036L16.4109 24.9917H16.5182L16.6254 25.099H16.8399L16.9472 25.2063H17.0545L17.1617 25.3135H17.269L17.3762 25.4208H17.4835L17.5908 25.5281H17.8053L17.9125 25.6353H18.0198L18.1271 25.7426H18.2343L18.3416 25.8498H18.4488L18.5561 25.9571H18.6634L18.7706 26.0644H18.8779L18.9851 26.1716H19.0924L19.1997 26.2789H19.3069L19.4142 26.3861H19.5215L19.6287 26.4934H19.736L19.8432 26.6007H19.9505L20.0578 26.7079H20.165L20.2723 26.8152H20.3795L20.4868 26.9224L20.3795 27.0297H20.165L20.0578 26.9224L19.1997 26.8152L18.2343 26.7079L16.6254 26.6007H14.3729L13.0858 26.7079L12.4422 26.8152L11.9059 26.9224L11.4769 27.0297L11.0479 27.137L10.7261 27.2442L10.1898 27.4587L10.0825 27.566H9.97525L9.86799 27.6733H9.65347L9.5462 27.7805H9.43894L9.33168 27.8878H9.22442L9.11716 27.995H9.0099L8.79538 28.2096H8.68812L8.58086 28.3168H8.4736L8.25908 28.5314H8.15182L7.93729 28.7459H7.83003L7.61551 28.9604H7.50825L6.97195 29.4967H6.86469L4.82673 31.5347V31.6419L4.29043 32.1782V32.2855L3.96865 32.6073V32.7145L3.64686 33.0363V33.1436L3.43234 33.3581V33.4653L3.21782 33.6799V33.7871L3.11056 33.8944V34.0016L3.0033 34.1089V34.2162L2.78878 34.4307V34.538L2.68152 34.6452V34.7525L2.57426 34.8597V34.967L2.467 35.0743V35.1815L2.35974 35.2888V35.5033L2.25248 35.6106V35.7178L2.14521 35.8251V36.0396L2.03795 36.1469V36.3614L1.93069 36.4686V36.5759L1.82343 36.6832V37.005L1.71617 37.1122V37.3267L1.60891 37.434V37.7558L1.50165 37.863V38.1848L1.39439 38.2921V38.6139L1.28713 38.7211V39.2574L1.17987 39.3647V40.0083L1.07261 40.1155V41.1881L0.965347 41.2954V43.0116L1.07261 43.1188V44.1914L1.17987 44.2987V44.9422L1.28713 45.0495V45.4785L1.39439 45.5858V46.0149L1.50165 46.1221V46.4439L1.60891 46.5512V46.8729L1.71617 46.9802V47.1947L1.82343 47.302V47.5165L1.93069 47.6238V47.8383L2.03795 47.9455V48.1601L2.14521 48.2673V48.4818L2.25248 48.5891V48.8036L2.35974 48.9109V49.0182L2.467 49.1254V49.3399L2.57426 49.4472V49.5545L2.68152 49.6617V49.769L2.78878 49.8762V50.0908L2.89604 50.198V50.3053L3.0033 50.4125V50.5198L3.11056 50.6271V50.7343L3.21782 50.8416V50.9488L3.32508 51.0561V51.1634L3.43234 51.2706V51.3779L3.5396 51.4851V51.5924L3.75413 51.8069V51.9142L3.86139 52.0215V52.1287L3.96865 52.236V52.3432L4.07591 52.4505V52.5578L4.29043 52.7723V52.8795L4.50495 53.0941V53.2013L4.61221 53.3086V53.4158L4.82673 53.6304V53.7376L5.04125 53.9521V54.0594L5.25578 54.2739V54.3812L5.57756 54.703V54.8102L5.89934 55.132V55.2393L6.32838 55.6683V55.7756L6.86469 56.3119V56.4191L9.22442 58.7789H9.33168L9.97525 59.4224H10.0825L10.5116 59.8515H10.6188L11.0479 60.2805H11.1551L11.4769 60.6023H11.5842L11.9059 60.9241H12.0132L12.335 61.2459H12.4422L12.6568 61.4604H12.764L12.9785 61.6749H13.0858L13.3003 61.8894H13.4076L13.6221 62.104H13.7294L13.9439 62.3185H14.0512L14.1584 62.4257H14.2657L14.4802 62.6403H14.5875L14.6947 62.7475H14.802L14.9092 62.8548H15.0165L15.1238 62.962H15.231L15.4455 63.1766H15.5528L15.6601 63.2838H15.7673L15.8746 63.3911H16.0891L16.1964 63.4983H16.3036L16.4109 63.6056H16.5182L16.6254 63.7129H16.7327L16.8399 63.8201H17.0545L17.1617 63.9274H17.269L17.3762 64.0347H17.5908L17.698 64.1419H17.9125L18.0198 64.2492H18.2343L18.3416 64.3564H18.5561L18.6634 64.4637H18.9851L19.0924 64.571H19.3069L19.4142 64.6782H19.8432L19.9505 64.7855H20.165L20.2723 64.8927V64.7855L19.736 64.2492V64.1419L19.3069 63.7129V63.6056L19.0924 63.3911V63.2838L18.7706 62.962V62.8548L18.6634 62.7475V62.6403L18.4488 62.4257V62.3185L18.3416 62.2112V62.104L18.2343 61.9967V61.8894L18.1271 61.7822V61.6749L18.0198 61.5677V61.4604L17.9125 61.3531V61.1386L17.8053 61.0314V60.9241L17.698 60.8168V60.495L17.5908 60.3878V60.1733L17.4835 60.066V59.5297L17.3762 59.4224V58.7789L17.4835 58.6716L17.698 58.8861H17.8053L17.9125 58.9934H18.0198L18.1271 59.1007H18.2343L18.4488 59.3152H18.5561L18.6634 59.4224H18.7706L18.9851 59.637H19.0924L19.1997 59.7442H19.3069L19.5215 59.9587H19.6287L19.736 60.066H19.8432L20.0578 60.2805H20.165L20.2723 60.3878H20.3795L20.4868 60.495H20.5941L20.8086 60.7096H20.9158L21.0231 60.8168H21.1304L21.2376 60.9241H21.3449L21.5594 61.1386H21.6667L21.7739 61.2459H21.8812L21.9884 61.3531H22.0957L22.203 61.4604H22.3102L22.4175 61.5677H22.5248L22.7393 61.7822H22.8465L22.9538 61.8894H23.0611L23.1683 61.9967H23.2756L23.3828 62.104H23.4901L23.5974 62.2112H23.7046L23.8119 62.3185H23.9191L24.0264 62.4257H24.1337L24.2409 62.533H24.3482L24.5627 62.7475H24.67L24.7772 62.8548H24.8845L24.9917 62.962H25.099L25.2063 63.0693H25.3135L25.4208 63.1766H25.5281L25.6353 63.2838H25.7426L25.8498 63.3911H25.9571L26.0644 63.4983H26.1716L26.2789 63.6056H26.3861L26.4934 63.7129H26.6007L26.7079 63.8201H26.8152L26.9224 63.9274H27.0297L27.137 64.0347H27.2442L27.3515 64.1419H27.4587L27.566 64.2492H27.6733L27.7805 64.3564H27.8878L27.995 64.4637H28.2096L28.3168 64.571H28.4241L28.5314 64.6782H28.7459L28.8531 64.7855H29.1749L29.2822 64.8927H29.8185L29.9257 65H31.8564L31.9637 64.8927H32.3927L32.5 64.7855H32.8218L32.929 64.6782H33.1436L33.2508 64.571H33.4653L33.5726 64.4637H33.6799L33.7871 64.3564H33.8944L34.0016 64.2492H34.1089L34.2162 64.1419H34.3234L34.4307 64.0347H34.538L34.6452 63.9274H34.7525L34.8597 63.8201H34.967L35.1815 63.6056H35.2888L35.396 63.4983H35.5033L35.6106 63.3911H35.7178L35.8251 63.2838H35.9323L36.1469 63.0693H36.2541L36.3614 62.962H36.4686L36.5759 62.8548H36.6832L36.8977 62.6403H37.005L37.1122 62.533H37.2195L37.434 62.3185H37.5413L37.6485 62.2112H37.7558L37.9703 61.9967H38.0776L38.2921 61.7822H38.3993L38.5066 61.6749H38.6139L38.8284 61.4604H38.9356L39.0429 61.3531H39.1502L39.3647 61.1386H39.4719L39.6865 60.9241H39.7937L39.901 60.8168H40.0083L40.2228 60.6023H40.33L40.5446 60.3878H40.6518L40.7591 60.2805H40.8663L41.0809 60.066H41.1881L41.4026 59.8515H41.5099L41.6172 59.7442H41.7244L41.9389 59.5297H42.0462L42.1535 59.4224H42.2607L42.4752 59.2079H42.5825L42.797 58.9934H42.9043L43.1188 58.7789H43.2261L43.4406 58.5644H43.5479L43.8696 58.2426H43.9769L45.0495 57.17V57.0627L45.264 56.8482V56.7409L45.3713 56.6337V56.5264L45.4785 56.4191V56.3119L45.5858 56.2046V55.9901L45.6931 55.8828V55.6683L45.8003 55.5611V55.132L45.9076 55.0247V54.1667L46.0149 54.0594V52.665L45.9076 52.5578V51.4851L45.8003 51.3779V50.7343L45.6931 50.6271V50.198L45.5858 50.0908V49.5545L45.4785 49.4472V49.1254L45.3713 49.0182V48.6964L45.264 48.5891V48.2673L45.1568 48.1601V47.9455L45.0495 47.8383V47.6238L44.9422 47.5165V47.1947L44.835 47.0875V46.8729L44.7277 46.7657V46.6584L44.6205 46.5512V46.2294H44.5132V52.236L44.4059 52.3432V52.9868L44.2987 53.0941V53.3086L44.1914 53.4158V53.6304L44.0842 53.7376V53.8449L43.8696 54.0594V54.1667L43.5479 54.4884V54.5957L43.1188 55.0247H43.0116L42.6898 55.3465H42.5825L42.368 55.5611H42.2607L42.0462 55.7756H41.9389L41.8317 55.8828H41.7244L41.5099 56.0974H41.4026L41.2954 56.2046H41.1881L41.0809 56.3119H40.9736L40.7591 56.5264H40.6518L40.5446 56.6337H40.4373L40.2228 56.8482H40.1155L40.0083 56.9554H39.901L39.6865 57.17H39.5792L39.4719 57.2772H39.3647L39.2574 57.3845H39.1502L38.9356 57.599H38.8284L38.7211 57.7063H38.6139L38.3993 57.9208H38.2921L38.1848 58.0281H38.0776L37.9703 58.1353H37.863L37.6485 58.3498H37.5413L37.434 58.4571H37.3267L37.1122 58.6716H37.005L36.8977 58.7789H36.7904L36.5759 58.9934H36.4686L36.3614 59.1007H36.2541L36.1469 59.2079H36.0396L35.8251 59.4224H35.7178L35.6106 59.5297H35.5033L35.2888 59.7442H35.1815L35.0743 59.8515H34.967L34.8597 59.9587H34.7525L34.538 60.1733H34.4307L34.3234 60.2805H34.2162L34.1089 60.3878H34.0016L33.7871 60.6023H33.6799L33.5726 60.7096H33.4653L33.2508 60.9241H33.1436L33.0363 61.0314H32.8218L32.7145 61.1386H32.5L32.3927 61.2459H32.071L31.9637 61.3531H30.5693L30.462 61.2459H30.033L29.9257 61.1386H29.8185L29.7112 61.0314H29.4967L29.3894 60.9241H29.2822L29.1749 60.8168H29.0677L28.8531 60.6023H28.7459L28.6386 60.495H28.5314L28.3168 60.2805H28.2096L28.1023 60.1733H27.995L27.7805 59.9587H27.6733L27.566 59.8515H27.4587L27.2442 59.637H27.137L27.0297 59.5297H26.9224L26.7079 59.3152H26.6007L26.4934 59.2079H26.3861L26.2789 59.1007H26.1716L25.9571 58.8861H25.8498L25.7426 58.7789H25.6353L25.4208 58.5644H25.3135L25.2063 58.4571H25.099L24.8845 58.2426H24.7772L24.67 58.1353H24.5627L24.3482 57.9208H24.2409L24.1337 57.8135H24.0264L23.8119 57.599H23.7046L23.5974 57.4917H23.4901L23.2756 57.2772H23.1683L23.0611 57.17H22.9538L22.7393 56.9554H22.632L22.5248 56.8482H22.4175L22.203 56.6337H22.0957L21.9884 56.5264H21.8812L21.6667 56.3119H21.5594L21.4521 56.2046H21.3449L21.1304 55.9901H21.0231L20.9158 55.8828H20.8086L20.5941 55.6683H20.4868L20.2723 55.4538H20.165L19.8432 55.132H19.736L19.1997 54.5957V54.4884L18.8779 54.1667V54.0594L18.6634 53.8449V53.7376L18.5561 53.6304V53.5231L18.4488 53.4158V53.2013L18.3416 53.0941V52.8795L18.2343 52.7723V52.4505L18.1271 52.3432V41.4026L18.2343 41.2954V40.9736L18.3416 40.8663V40.6518L18.4488 40.5446V40.4373L18.5561 40.33V40.2228L18.6634 40.1155V40.0083L18.8779 39.7937V39.6865L19.6287 38.9356H19.736L19.9505 38.7211H20.0578L20.165 38.6139H20.2723L20.4868 38.3993H20.5941L20.8086 38.1848H20.9158L21.0231 38.0776H21.1304L21.3449 37.863H21.4521L21.5594 37.7558H21.6667L21.8812 37.5413H21.9884L22.0957 37.434H22.203L22.4175 37.2195H22.5248L22.632 37.1122H22.7393L22.9538 36.8977H23.0611L23.1683 36.7904H23.2756L23.3828 36.6832H23.4901L23.7046 36.4686H23.8119L24.0264 36.2541H24.1337L24.2409 36.1469H24.3482L24.5627 35.9323H24.67L24.7772 35.8251H24.8845L24.9917 35.7178H25.099L25.3135 35.5033H25.4208L25.5281 35.396H25.6353L25.8498 35.1815H25.9571L26.0644 35.0743H26.1716L26.3861 34.8597H26.4934L26.6007 34.7525H26.7079L26.9224 34.538H27.0297L27.137 34.4307H27.2442L27.4587 34.2162H27.566L27.6733 34.1089H27.7805L27.8878 34.0016H27.995L28.2096 33.7871H28.3168L28.4241 33.6799H28.5314L28.7459 33.4653H28.8531L28.9604 33.3581H29.0677L29.1749 33.2508H29.2822L29.3894 33.1436H29.4967L29.604 33.0363H29.8185L29.9257 32.929H30.1403L30.2475 32.8218H32.071L32.1782 32.929H32.5L32.6073 33.0363H32.7145L32.8218 33.1436H33.0363L33.1436 33.2508H33.2508L33.4653 33.4653H33.5726L33.6799 33.5726H33.7871L34.0016 33.7871H34.1089L34.2162 33.8944H34.3234L34.4307 34.0016H34.538L34.7525 34.2162H34.8597L34.967 34.3234H35.0743L35.2888 34.538H35.396L35.5033 34.6452H35.6106L35.8251 34.8597H35.9323L36.0396 34.967H36.1469L36.2541 35.0743H36.3614L36.5759 35.2888H36.6832L36.7904 35.396H36.8977L37.1122 35.6106H37.2195L37.3267 35.7178H37.434L37.5413 35.8251H37.6485L37.863 36.0396H37.9703L38.0776 36.1469H38.1848L38.3993 36.3614H38.5066L38.6139 36.4686H38.7211L38.9356 36.6832H39.0429L39.1502 36.7904H39.2574L39.3647 36.8977H39.4719L39.6865 37.1122H39.7937L39.901 37.2195H40.0083L40.1155 37.3267H40.2228L40.4373 37.5413H40.5446L40.6518 37.6485H40.7591L40.9736 37.863H41.0809L41.1881 37.9703H41.2954L41.4026 38.0776H41.5099L41.7244 38.2921H41.8317L41.9389 38.3993H42.0462L42.1535 38.5066H42.2607L42.4752 38.7211H42.5825L42.797 38.9356H42.9043L43.3333 39.3647V39.4719L43.6551 39.7937V39.901L43.8696 40.1155V40.2228L43.9769 40.33V40.4373L44.0842 40.5446V40.7591L44.1914 40.8663V41.0809L44.2987 41.1881V41.7244L44.4059 41.8317V42.9043H44.5132L44.6205 42.797H44.7277L44.9422 42.5825H45.0495L45.4785 42.1535H45.5858L45.8003 41.9389V41.8317L46.3366 41.2954V41.1881L46.4439 41.0809V40.9736L46.6584 40.7591V40.6518L46.7657 40.5446V40.4373L46.8729 40.33V40.2228L46.9802 40.1155V40.0083L47.0875 39.901V39.6865L47.1947 39.5792V39.4719L47.302 39.3647V39.1502L47.4092 39.0429V38.8284L47.5165 38.7211V38.5066L47.6238 38.3993V38.1848L47.731 38.0776V37.7558L47.8383 37.6485V37.2195L47.9455 37.1122V36.5759L48.0528 36.4686V35.7178L48.1601 35.6106V33.0363L48.0528 32.929V31.9637L47.9455 31.8564V31.3201L47.8383 31.2129V30.6766L47.731 30.5693V30.2475L47.6238 30.1403V29.8185L47.5165 29.7112V29.3894L47.4092 29.2822V28.9604L47.302 28.8531V28.6386L47.1947 28.5314V28.3168L47.0875 28.2096V27.995L46.9802 27.8878V27.7805L46.8729 27.6733V27.4587L46.7657 27.3515V27.137L46.6584 27.0297V26.9224L46.5512 26.8152V26.6007L46.4439 26.4934V26.3861L46.3366 26.2789V26.1716L46.2294 26.0644V25.9571L46.1221 25.8498V25.7426L46.0149 25.6353V25.5281L45.9076 25.4208V25.3135L45.8003 25.2063V25.099L45.6931 24.9917V24.8845L45.4785 24.67V24.5627L45.3713 24.4554V24.3482L45.264 24.2409V24.1337L45.0495 23.9191V23.8119L44.9422 23.7046V23.5974L44.7277 23.3828V23.2756L44.5132 23.0611V22.9538L44.2987 22.7393V22.632L43.9769 22.3102V22.203L43.6551 21.8812V21.7739L43.3333 21.4521V21.3449L42.797 20.8086V20.7013L42.2607 20.165V20.0578L40.4373 18.2343V18.1271L40.33 18.0198H40.2228L38.5066 16.3036H38.3993L37.6485 15.5528H37.5413L37.005 15.0165H36.8977L36.3614 14.4802H36.2541L35.8251 14.0512H35.7178L35.396 13.7294H35.2888L34.967 13.4076H34.8597L34.538 13.0858H34.4307L34.1089 12.764H34.0016L33.7871 12.5495H33.6799L33.3581 12.2277H33.2508L33.0363 12.0132H32.929L32.7145 11.7987H32.6073L32.3927 11.5842H32.2855L32.071 11.3696H31.9637L31.8564 11.2624H31.7492L31.5347 11.0479H31.4274L31.3201 10.9406H31.2129L30.9984 10.7261H30.8911L30.7838 10.6188H30.6766L30.462 10.4043H30.3548L30.2475 10.297H30.1403L30.033 10.1898H29.9257L29.8185 10.0825H29.7112L29.604 9.97525H29.4967L29.3894 9.86799H29.2822L29.0677 9.65347H28.9604L28.8531 9.5462H28.7459L28.6386 9.43894H28.4241L28.3168 9.33168H28.2096L28.1023 9.22442H27.995L27.8878 9.11716H27.7805L27.6733 9.0099H27.566L27.4587 8.90264H27.2442L27.137 8.79538H27.0297L26.9224 8.68812H26.8152L26.7079 8.58086H26.4934L26.3861 8.4736H26.1716L26.0644 8.36634H25.9571L25.8498 8.25908H25.6353L25.5281 8.15182H25.3135L25.2063 8.04455H24.9917L24.8845 7.93729H24.67L24.5627 7.83003H24.3482L24.2409 7.72277H24.0264L23.9191 7.61551H23.5974L23.4901 7.50825H23.1683L23.0611 7.40099H22.7393L22.632 7.29373H22.203L22.0957 7.18647H21.7739L23.0611 8.4736H23.1683L23.9191 9.22442H24.0264L24.5627 9.76073H24.67L25.2063 10.297H25.3135L25.7426 10.7261H25.8498L26.4934 11.3696H26.6007L27.137 11.9059H27.2442L28.3168 12.9785H28.4241L29.3894 13.9439V14.0512L30.3548 15.0165V15.1238L30.8911 15.6601V15.7673L31.2129 16.0891V16.1964L31.4274 16.4109V16.5182L31.6419 16.7327V16.8399L31.8564 17.0545V17.1617L32.071 17.3762V17.4835L32.1782 17.5908V17.698L32.2855 17.8053V17.9125L32.3927 18.0198V18.1271L32.5 18.2343V18.3416L32.6073 18.4488V18.5561L32.7145 18.6634V18.8779L32.8218 18.9851V19.0924L32.7145 19.1997H32.071L31.9637 19.3069H29.0677L28.9604 19.1997H28.2096L28.1023 19.0924H27.6733L27.566 18.9851H27.2442L27.137 18.8779H26.8152L26.7079 18.7706H26.6007L26.4934 18.6634H26.2789L26.1716 18.5561H26.0644L25.9571 18.4488H25.8498L25.7426 18.3416H25.6353L25.4208 18.1271H25.3135L24.9917 17.8053H24.8845L24.3482 17.269H24.2409L23.5974 16.6254H23.4901L22.8465 15.9818H22.7393L22.0957 15.3383H21.9884L21.4521 14.802H21.3449L20.8086 14.2657H20.7013L20.2723 13.8366H20.165L19.6287 13.3003H19.5215L18.9851 12.764H18.8779L18.3416 12.2277H18.2343L17.8053 11.7987H17.698L17.269 11.3696H17.1617L16.6254 10.8333H16.5182L16.0891 10.4043H15.9818L15.5528 9.97525H15.4455L14.9092 9.43894H14.802L14.3729 9.0099H14.2657L13.8366 8.58086H13.7294L13.3003 8.15182H13.1931L12.764 7.72277H12.6568L12.2277 7.29373H12.1205L11.6914 6.86469H11.5842L11.1551 6.43564H11.0479L10.6188 6.0066H10.5116L10.1898 5.68482H10.0825L9.65347 5.25578H9.5462L9.11716 4.82673H9.0099L8.58086 4.39769H8.4736L8.15182 4.07591H8.04455L7.61551 3.64686H7.50825L7.07921 3.21782H6.97195L6.65017 2.89604H6.5429L6.11386 2.467H6.0066L5.57756 2.03795H5.4703L5.04125 1.60891H4.93399L4.50495 1.17987H4.39769L4.07591 0.858086H3.96865L3.5396 0.429043H3.43234L3.0033 0H2.89604Z"/>
</mask>
<path d="M2.89604 0V0.107261L2.78878 0.214521V0.321782L2.57426 0.536304V0.643564L2.35974 0.858086V0.965347L2.25248 1.07261V1.17987L2.03795 1.39439V1.50165L1.93069 1.60891V1.71617L1.82343 1.82343V1.93069L1.71617 2.03795V2.14521L1.60891 2.25248V2.35974L1.50165 2.467V2.57426L1.39439 2.68152V2.78878L1.28713 2.89604V3.0033L1.17987 3.11056V3.21782L1.07261 3.32508V3.5396L0.965347 3.64686V3.86139L0.858086 3.96865V4.07591L0.750825 4.18317V4.50495L0.643564 4.61221V4.82673L0.536304 4.93399V5.25578L0.429043 5.36304V5.79208L0.321782 5.89934V6.32838L0.214521 6.43564V6.97195L0.107261 7.07921V7.93729L0 8.04455V11.2624L0.107261 11.3696V12.2277L0.214521 12.335V12.8713L0.321782 12.9785V13.4076L0.429043 13.5149V13.8366L0.536304 13.9439V14.2657L0.643564 14.3729V14.6947L0.750825 14.802V14.9092L0.858086 15.0165V15.231L0.965347 15.3383V15.5528L1.07261 15.6601V15.7673L1.17987 15.8746V15.9818L1.28713 16.0891V16.1964L1.39439 16.3036V16.4109L1.50165 16.5182V16.6254L1.60891 16.7327V16.8399L1.82343 17.0545V17.1617L2.03795 17.3762V17.4835L2.35974 17.8053V17.9125L3.96865 19.5215H4.07591L4.39769 19.8432H4.50495L4.71947 20.0578H4.82673L5.04125 20.2723H5.14851L5.25578 20.3795H5.36304L5.57756 20.5941H5.68482L5.79208 20.7013H5.89934L6.0066 20.8086H6.11386L6.22112 20.9158H6.32838L6.43564 21.0231H6.5429L6.65017 21.1304H6.75743L6.86469 21.2376H6.97195L7.07921 21.3449H7.18647L7.29373 21.4521H7.40099L7.50825 21.5594H7.72277L7.83003 21.6667H7.93729L8.04455 21.7739H8.25908L8.36634 21.8812H8.4736L8.58086 21.9884H8.79538L8.90264 22.0957H9.0099L9.11716 22.203H9.33168L9.43894 22.3102H9.65347L9.76073 22.4175H9.97525L10.0825 22.5248H10.1898L10.297 22.632H10.5116L10.6188 22.7393H10.8333L10.9406 22.8465H11.1551L11.2624 22.9538H11.4769L11.5842 23.0611H11.6914L11.7987 23.1683H12.0132L12.1205 23.2756H12.335L12.4422 23.3828H12.5495L12.6568 23.4901H12.8713L12.9785 23.5974H13.1931L13.3003 23.7046H13.4076L13.5149 23.8119H13.7294L13.8366 23.9191H13.9439L14.0512 24.0264H14.2657L14.3729 24.1337H14.4802L14.5875 24.2409H14.802L14.9092 24.3482H15.0165L15.1238 24.4554H15.3383L15.4455 24.5627H15.5528L15.6601 24.67H15.8746L15.9818 24.7772H16.0891L16.1964 24.8845H16.3036L16.4109 24.9917H16.5182L16.6254 25.099H16.8399L16.9472 25.2063H17.0545L17.1617 25.3135H17.269L17.3762 25.4208H17.4835L17.5908 25.5281H17.8053L17.9125 25.6353H18.0198L18.1271 25.7426H18.2343L18.3416 25.8498H18.4488L18.5561 25.9571H18.6634L18.7706 26.0644H18.8779L18.9851 26.1716H19.0924L19.1997 26.2789H19.3069L19.4142 26.3861H19.5215L19.6287 26.4934H19.736L19.8432 26.6007H19.9505L20.0578 26.7079H20.165L20.2723 26.8152H20.3795L20.4868 26.9224L20.3795 27.0297H20.165L20.0578 26.9224L19.1997 26.8152L18.2343 26.7079L16.6254 26.6007H14.3729L13.0858 26.7079L12.4422 26.8152L11.9059 26.9224L11.4769 27.0297L11.0479 27.137L10.7261 27.2442L10.1898 27.4587L10.0825 27.566H9.97525L9.86799 27.6733H9.65347L9.5462 27.7805H9.43894L9.33168 27.8878H9.22442L9.11716 27.995H9.0099L8.79538 28.2096H8.68812L8.58086 28.3168H8.4736L8.25908 28.5314H8.15182L7.93729 28.7459H7.83003L7.61551 28.9604H7.50825L6.97195 29.4967H6.86469L4.82673 31.5347V31.6419L4.29043 32.1782V32.2855L3.96865 32.6073V32.7145L3.64686 33.0363V33.1436L3.43234 33.3581V33.4653L3.21782 33.6799V33.7871L3.11056 33.8944V34.0016L3.0033 34.1089V34.2162L2.78878 34.4307V34.538L2.68152 34.6452V34.7525L2.57426 34.8597V34.967L2.467 35.0743V35.1815L2.35974 35.2888V35.5033L2.25248 35.6106V35.7178L2.14521 35.8251V36.0396L2.03795 36.1469V36.3614L1.93069 36.4686V36.5759L1.82343 36.6832V37.005L1.71617 37.1122V37.3267L1.60891 37.434V37.7558L1.50165 37.863V38.1848L1.39439 38.2921V38.6139L1.28713 38.7211V39.2574L1.17987 39.3647V40.0083L1.07261 40.1155V41.1881L0.965347 41.2954V43.0116L1.07261 43.1188V44.1914L1.17987 44.2987V44.9422L1.28713 45.0495V45.4785L1.39439 45.5858V46.0149L1.50165 46.1221V46.4439L1.60891 46.5512V46.8729L1.71617 46.9802V47.1947L1.82343 47.302V47.5165L1.93069 47.6238V47.8383L2.03795 47.9455V48.1601L2.14521 48.2673V48.4818L2.25248 48.5891V48.8036L2.35974 48.9109V49.0182L2.467 49.1254V49.3399L2.57426 49.4472V49.5545L2.68152 49.6617V49.769L2.78878 49.8762V50.0908L2.89604 50.198V50.3053L3.0033 50.4125V50.5198L3.11056 50.6271V50.7343L3.21782 50.8416V50.9488L3.32508 51.0561V51.1634L3.43234 51.2706V51.3779L3.5396 51.4851V51.5924L3.75413 51.8069V51.9142L3.86139 52.0215V52.1287L3.96865 52.236V52.3432L4.07591 52.4505V52.5578L4.29043 52.7723V52.8795L4.50495 53.0941V53.2013L4.61221 53.3086V53.4158L4.82673 53.6304V53.7376L5.04125 53.9521V54.0594L5.25578 54.2739V54.3812L5.57756 54.703V54.8102L5.89934 55.132V55.2393L6.32838 55.6683V55.7756L6.86469 56.3119V56.4191L9.22442 58.7789H9.33168L9.97525 59.4224H10.0825L10.5116 59.8515H10.6188L11.0479 60.2805H11.1551L11.4769 60.6023H11.5842L11.9059 60.9241H12.0132L12.335 61.2459H12.4422L12.6568 61.4604H12.764L12.9785 61.6749H13.0858L13.3003 61.8894H13.4076L13.6221 62.104H13.7294L13.9439 62.3185H14.0512L14.1584 62.4257H14.2657L14.4802 62.6403H14.5875L14.6947 62.7475H14.802L14.9092 62.8548H15.0165L15.1238 62.962H15.231L15.4455 63.1766H15.5528L15.6601 63.2838H15.7673L15.8746 63.3911H16.0891L16.1964 63.4983H16.3036L16.4109 63.6056H16.5182L16.6254 63.7129H16.7327L16.8399 63.8201H17.0545L17.1617 63.9274H17.269L17.3762 64.0347H17.5908L17.698 64.1419H17.9125L18.0198 64.2492H18.2343L18.3416 64.3564H18.5561L18.6634 64.4637H18.9851L19.0924 64.571H19.3069L19.4142 64.6782H19.8432L19.9505 64.7855H20.165L20.2723 64.8927V64.7855L19.736 64.2492V64.1419L19.3069 63.7129V63.6056L19.0924 63.3911V63.2838L18.7706 62.962V62.8548L18.6634 62.7475V62.6403L18.4488 62.4257V62.3185L18.3416 62.2112V62.104L18.2343 61.9967V61.8894L18.1271 61.7822V61.6749L18.0198 61.5677V61.4604L17.9125 61.3531V61.1386L17.8053 61.0314V60.9241L17.698 60.8168V60.495L17.5908 60.3878V60.1733L17.4835 60.066V59.5297L17.3762 59.4224V58.7789L17.4835 58.6716L17.698 58.8861H17.8053L17.9125 58.9934H18.0198L18.1271 59.1007H18.2343L18.4488 59.3152H18.5561L18.6634 59.4224H18.7706L18.9851 59.637H19.0924L19.1997 59.7442H19.3069L19.5215 59.9587H19.6287L19.736 60.066H19.8432L20.0578 60.2805H20.165L20.2723 60.3878H20.3795L20.4868 60.495H20.5941L20.8086 60.7096H20.9158L21.0231 60.8168H21.1304L21.2376 60.9241H21.3449L21.5594 61.1386H21.6667L21.7739 61.2459H21.8812L21.9884 61.3531H22.0957L22.203 61.4604H22.3102L22.4175 61.5677H22.5248L22.7393 61.7822H22.8465L22.9538 61.8894H23.0611L23.1683 61.9967H23.2756L23.3828 62.104H23.4901L23.5974 62.2112H23.7046L23.8119 62.3185H23.9191L24.0264 62.4257H24.1337L24.2409 62.533H24.3482L24.5627 62.7475H24.67L24.7772 62.8548H24.8845L24.9917 62.962H25.099L25.2063 63.0693H25.3135L25.4208 63.1766H25.5281L25.6353 63.2838H25.7426L25.8498 63.3911H25.9571L26.0644 63.4983H26.1716L26.2789 63.6056H26.3861L26.4934 63.7129H26.6007L26.7079 63.8201H26.8152L26.9224 63.9274H27.0297L27.137 64.0347H27.2442L27.3515 64.1419H27.4587L27.566 64.2492H27.6733L27.7805 64.3564H27.8878L27.995 64.4637H28.2096L28.3168 64.571H28.4241L28.5314 64.6782H28.7459L28.8531 64.7855H29.1749L29.2822 64.8927H29.8185L29.9257 65H31.8564L31.9637 64.8927H32.3927L32.5 64.7855H32.8218L32.929 64.6782H33.1436L33.2508 64.571H33.4653L33.5726 64.4637H33.6799L33.7871 64.3564H33.8944L34.0016 64.2492H34.1089L34.2162 64.1419H34.3234L34.4307 64.0347H34.538L34.6452 63.9274H34.7525L34.8597 63.8201H34.967L35.1815 63.6056H35.2888L35.396 63.4983H35.5033L35.6106 63.3911H35.7178L35.8251 63.2838H35.9323L36.1469 63.0693H36.2541L36.3614 62.962H36.4686L36.5759 62.8548H36.6832L36.8977 62.6403H37.005L37.1122 62.533H37.2195L37.434 62.3185H37.5413L37.6485 62.2112H37.7558L37.9703 61.9967H38.0776L38.2921 61.7822H38.3993L38.5066 61.6749H38.6139L38.8284 61.4604H38.9356L39.0429 61.3531H39.1502L39.3647 61.1386H39.4719L39.6865 60.9241H39.7937L39.901 60.8168H40.0083L40.2228 60.6023H40.33L40.5446 60.3878H40.6518L40.7591 60.2805H40.8663L41.0809 60.066H41.1881L41.4026 59.8515H41.5099L41.6172 59.7442H41.7244L41.9389 59.5297H42.0462L42.1535 59.4224H42.2607L42.4752 59.2079H42.5825L42.797 58.9934H42.9043L43.1188 58.7789H43.2261L43.4406 58.5644H43.5479L43.8696 58.2426H43.9769L45.0495 57.17V57.0627L45.264 56.8482V56.7409L45.3713 56.6337V56.5264L45.4785 56.4191V56.3119L45.5858 56.2046V55.9901L45.6931 55.8828V55.6683L45.8003 55.5611V55.132L45.9076 55.0247V54.1667L46.0149 54.0594V52.665L45.9076 52.5578V51.4851L45.8003 51.3779V50.7343L45.6931 50.6271V50.198L45.5858 50.0908V49.5545L45.4785 49.4472V49.1254L45.3713 49.0182V48.6964L45.264 48.5891V48.2673L45.1568 48.1601V47.9455L45.0495 47.8383V47.6238L44.9422 47.5165V47.1947L44.835 47.0875V46.8729L44.7277 46.7657V46.6584L44.6205 46.5512V46.2294H44.5132V52.236L44.4059 52.3432V52.9868L44.2987 53.0941V53.3086L44.1914 53.4158V53.6304L44.0842 53.7376V53.8449L43.8696 54.0594V54.1667L43.5479 54.4884V54.5957L43.1188 55.0247H43.0116L42.6898 55.3465H42.5825L42.368 55.5611H42.2607L42.0462 55.7756H41.9389L41.8317 55.8828H41.7244L41.5099 56.0974H41.4026L41.2954 56.2046H41.1881L41.0809 56.3119H40.9736L40.7591 56.5264H40.6518L40.5446 56.6337H40.4373L40.2228 56.8482H40.1155L40.0083 56.9554H39.901L39.6865 57.17H39.5792L39.4719 57.2772H39.3647L39.2574 57.3845H39.1502L38.9356 57.599H38.8284L38.7211 57.7063H38.6139L38.3993 57.9208H38.2921L38.1848 58.0281H38.0776L37.9703 58.1353H37.863L37.6485 58.3498H37.5413L37.434 58.4571H37.3267L37.1122 58.6716H37.005L36.8977 58.7789H36.7904L36.5759 58.9934H36.4686L36.3614 59.1007H36.2541L36.1469 59.2079H36.0396L35.8251 59.4224H35.7178L35.6106 59.5297H35.5033L35.2888 59.7442H35.1815L35.0743 59.8515H34.967L34.8597 59.9587H34.7525L34.538 60.1733H34.4307L34.3234 60.2805H34.2162L34.1089 60.3878H34.0016L33.7871 60.6023H33.6799L33.5726 60.7096H33.4653L33.2508 60.9241H33.1436L33.0363 61.0314H32.8218L32.7145 61.1386H32.5L32.3927 61.2459H32.071L31.9637 61.3531H30.5693L30.462 61.2459H30.033L29.9257 61.1386H29.8185L29.7112 61.0314H29.4967L29.3894 60.9241H29.2822L29.1749 60.8168H29.0677L28.8531 60.6023H28.7459L28.6386 60.495H28.5314L28.3168 60.2805H28.2096L28.1023 60.1733H27.995L27.7805 59.9587H27.6733L27.566 59.8515H27.4587L27.2442 59.637H27.137L27.0297 59.5297H26.9224L26.7079 59.3152H26.6007L26.4934 59.2079H26.3861L26.2789 59.1007H26.1716L25.9571 58.8861H25.8498L25.7426 58.7789H25.6353L25.4208 58.5644H25.3135L25.2063 58.4571H25.099L24.8845 58.2426H24.7772L24.67 58.1353H24.5627L24.3482 57.9208H24.2409L24.1337 57.8135H24.0264L23.8119 57.599H23.7046L23.5974 57.4917H23.4901L23.2756 57.2772H23.1683L23.0611 57.17H22.9538L22.7393 56.9554H22.632L22.5248 56.8482H22.4175L22.203 56.6337H22.0957L21.9884 56.5264H21.8812L21.6667 56.3119H21.5594L21.4521 56.2046H21.3449L21.1304 55.9901H21.0231L20.9158 55.8828H20.8086L20.5941 55.6683H20.4868L20.2723 55.4538H20.165L19.8432 55.132H19.736L19.1997 54.5957V54.4884L18.8779 54.1667V54.0594L18.6634 53.8449V53.7376L18.5561 53.6304V53.5231L18.4488 53.4158V53.2013L18.3416 53.0941V52.8795L18.2343 52.7723V52.4505L18.1271 52.3432V41.4026L18.2343 41.2954V40.9736L18.3416 40.8663V40.6518L18.4488 40.5446V40.4373L18.5561 40.33V40.2228L18.6634 40.1155V40.0083L18.8779 39.7937V39.6865L19.6287 38.9356H19.736L19.9505 38.7211H20.0578L20.165 38.6139H20.2723L20.4868 38.3993H20.5941L20.8086 38.1848H20.9158L21.0231 38.0776H21.1304L21.3449 37.863H21.4521L21.5594 37.7558H21.6667L21.8812 37.5413H21.9884L22.0957 37.434H22.203L22.4175 37.2195H22.5248L22.632 37.1122H22.7393L22.9538 36.8977H23.0611L23.1683 36.7904H23.2756L23.3828 36.6832H23.4901L23.7046 36.4686H23.8119L24.0264 36.2541H24.1337L24.2409 36.1469H24.3482L24.5627 35.9323H24.67L24.7772 35.8251H24.8845L24.9917 35.7178H25.099L25.3135 35.5033H25.4208L25.5281 35.396H25.6353L25.8498 35.1815H25.9571L26.0644 35.0743H26.1716L26.3861 34.8597H26.4934L26.6007 34.7525H26.7079L26.9224 34.538H27.0297L27.137 34.4307H27.2442L27.4587 34.2162H27.566L27.6733 34.1089H27.7805L27.8878 34.0016H27.995L28.2096 33.7871H28.3168L28.4241 33.6799H28.5314L28.7459 33.4653H28.8531L28.9604 33.3581H29.0677L29.1749 33.2508H29.2822L29.3894 33.1436H29.4967L29.604 33.0363H29.8185L29.9257 32.929H30.1403L30.2475 32.8218H32.071L32.1782 32.929H32.5L32.6073 33.0363H32.7145L32.8218 33.1436H33.0363L33.1436 33.2508H33.2508L33.4653 33.4653H33.5726L33.6799 33.5726H33.7871L34.0016 33.7871H34.1089L34.2162 33.8944H34.3234L34.4307 34.0016H34.538L34.7525 34.2162H34.8597L34.967 34.3234H35.0743L35.2888 34.538H35.396L35.5033 34.6452H35.6106L35.8251 34.8597H35.9323L36.0396 34.967H36.1469L36.2541 35.0743H36.3614L36.5759 35.2888H36.6832L36.7904 35.396H36.8977L37.1122 35.6106H37.2195L37.3267 35.7178H37.434L37.5413 35.8251H37.6485L37.863 36.0396H37.9703L38.0776 36.1469H38.1848L38.3993 36.3614H38.5066L38.6139 36.4686H38.7211L38.9356 36.6832H39.0429L39.1502 36.7904H39.2574L39.3647 36.8977H39.4719L39.6865 37.1122H39.7937L39.901 37.2195H40.0083L40.1155 37.3267H40.2228L40.4373 37.5413H40.5446L40.6518 37.6485H40.7591L40.9736 37.863H41.0809L41.1881 37.9703H41.2954L41.4026 38.0776H41.5099L41.7244 38.2921H41.8317L41.9389 38.3993H42.0462L42.1535 38.5066H42.2607L42.4752 38.7211H42.5825L42.797 38.9356H42.9043L43.3333 39.3647V39.4719L43.6551 39.7937V39.901L43.8696 40.1155V40.2228L43.9769 40.33V40.4373L44.0842 40.5446V40.7591L44.1914 40.8663V41.0809L44.2987 41.1881V41.7244L44.4059 41.8317V42.9043H44.5132L44.6205 42.797H44.7277L44.9422 42.5825H45.0495L45.4785 42.1535H45.5858L45.8003 41.9389V41.8317L46.3366 41.2954V41.1881L46.4439 41.0809V40.9736L46.6584 40.7591V40.6518L46.7657 40.5446V40.4373L46.8729 40.33V40.2228L46.9802 40.1155V40.0083L47.0875 39.901V39.6865L47.1947 39.5792V39.4719L47.302 39.3647V39.1502L47.4092 39.0429V38.8284L47.5165 38.7211V38.5066L47.6238 38.3993V38.1848L47.731 38.0776V37.7558L47.8383 37.6485V37.2195L47.9455 37.1122V36.5759L48.0528 36.4686V35.7178L48.1601 35.6106V33.0363L48.0528 32.929V31.9637L47.9455 31.8564V31.3201L47.8383 31.2129V30.6766L47.731 30.5693V30.2475L47.6238 30.1403V29.8185L47.5165 29.7112V29.3894L47.4092 29.2822V28.9604L47.302 28.8531V28.6386L47.1947 28.5314V28.3168L47.0875 28.2096V27.995L46.9802 27.8878V27.7805L46.8729 27.6733V27.4587L46.7657 27.3515V27.137L46.6584 27.0297V26.9224L46.5512 26.8152V26.6007L46.4439 26.4934V26.3861L46.3366 26.2789V26.1716L46.2294 26.0644V25.9571L46.1221 25.8498V25.7426L46.0149 25.6353V25.5281L45.9076 25.4208V25.3135L45.8003 25.2063V25.099L45.6931 24.9917V24.8845L45.4785 24.67V24.5627L45.3713 24.4554V24.3482L45.264 24.2409V24.1337L45.0495 23.9191V23.8119L44.9422 23.7046V23.5974L44.7277 23.3828V23.2756L44.5132 23.0611V22.9538L44.2987 22.7393V22.632L43.9769 22.3102V22.203L43.6551 21.8812V21.7739L43.3333 21.4521V21.3449L42.797 20.8086V20.7013L42.2607 20.165V20.0578L40.4373 18.2343V18.1271L40.33 18.0198H40.2228L38.5066 16.3036H38.3993L37.6485 15.5528H37.5413L37.005 15.0165H36.8977L36.3614 14.4802H36.2541L35.8251 14.0512H35.7178L35.396 13.7294H35.2888L34.967 13.4076H34.8597L34.538 13.0858H34.4307L34.1089 12.764H34.0016L33.7871 12.5495H33.6799L33.3581 12.2277H33.2508L33.0363 12.0132H32.929L32.7145 11.7987H32.6073L32.3927 11.5842H32.2855L32.071 11.3696H31.9637L31.8564 11.2624H31.7492L31.5347 11.0479H31.4274L31.3201 10.9406H31.2129L30.9984 10.7261H30.8911L30.7838 10.6188H30.6766L30.462 10.4043H30.3548L30.2475 10.297H30.1403L30.033 10.1898H29.9257L29.8185 10.0825H29.7112L29.604 9.97525H29.4967L29.3894 9.86799H29.2822L29.0677 9.65347H28.9604L28.8531 9.5462H28.7459L28.6386 9.43894H28.4241L28.3168 9.33168H28.2096L28.1023 9.22442H27.995L27.8878 9.11716H27.7805L27.6733 9.0099H27.566L27.4587 8.90264H27.2442L27.137 8.79538H27.0297L26.9224 8.68812H26.8152L26.7079 8.58086H26.4934L26.3861 8.4736H26.1716L26.0644 8.36634H25.9571L25.8498 8.25908H25.6353L25.5281 8.15182H25.3135L25.2063 8.04455H24.9917L24.8845 7.93729H24.67L24.5627 7.83003H24.3482L24.2409 7.72277H24.0264L23.9191 7.61551H23.5974L23.4901 7.50825H23.1683L23.0611 7.40099H22.7393L22.632 7.29373H22.203L22.0957 7.18647H21.7739L23.0611 8.4736H23.1683L23.9191 9.22442H24.0264L24.5627 9.76073H24.67L25.2063 10.297H25.3135L25.7426 10.7261H25.8498L26.4934 11.3696H26.6007L27.137 11.9059H27.2442L28.3168 12.9785H28.4241L29.3894 13.9439V14.0512L30.3548 15.0165V15.1238L30.8911 15.6601V15.7673L31.2129 16.0891V16.1964L31.4274 16.4109V16.5182L31.6419 16.7327V16.8399L31.8564 17.0545V17.1617L32.071 17.3762V17.4835L32.1782 17.5908V17.698L32.2855 17.8053V17.9125L32.3927 18.0198V18.1271L32.5 18.2343V18.3416L32.6073 18.4488V18.5561L32.7145 18.6634V18.8779L32.8218 18.9851V19.0924L32.7145 19.1997H32.071L31.9637 19.3069H29.0677L28.9604 19.1997H28.2096L28.1023 19.0924H27.6733L27.566 18.9851H27.2442L27.137 18.8779H26.8152L26.7079 18.7706H26.6007L26.4934 18.6634H26.2789L26.1716 18.5561H26.0644L25.9571 18.4488H25.8498L25.7426 18.3416H25.6353L25.4208 18.1271H25.3135L24.9917 17.8053H24.8845L24.3482 17.269H24.2409L23.5974 16.6254H23.4901L22.8465 15.9818H22.7393L22.0957 15.3383H21.9884L21.4521 14.802H21.3449L20.8086 14.2657H20.7013L20.2723 13.8366H20.165L19.6287 13.3003H19.5215L18.9851 12.764H18.8779L18.3416 12.2277H18.2343L17.8053 11.7987H17.698L17.269 11.3696H17.1617L16.6254 10.8333H16.5182L16.0891 10.4043H15.9818L15.5528 9.97525H15.4455L14.9092 9.43894H14.802L14.3729 9.0099H14.2657L13.8366 8.58086H13.7294L13.3003 8.15182H13.1931L12.764 7.72277H12.6568L12.2277 7.29373H12.1205L11.6914 6.86469H11.5842L11.1551 6.43564H11.0479L10.6188 6.0066H10.5116L10.1898 5.68482H10.0825L9.65347 5.25578H9.5462L9.11716 4.82673H9.0099L8.58086 4.39769H8.4736L8.15182 4.07591H8.04455L7.61551 3.64686H7.50825L7.07921 3.21782H6.97195L6.65017 2.89604H6.5429L6.11386 2.467H6.0066L5.57756 2.03795H5.4703L5.04125 1.60891H4.93399L4.50495 1.17987H4.39769L4.07591 0.858086H3.96865L3.5396 0.429043H3.43234L3.0033 0H2.89604Z" fill="black" stroke="white" mask="url(#path-2-inside-1_26_142)"/>
<path d="M38.4229 26.0033L38.9707 26.4142C41.1654 28.0603 42.9668 30.1735 44.2445 32.6012H43.9584C40.4632 32.6012 37.8155 29.4453 38.4229 26.0033Z" fill="white"/>
<path d="M7.95631 36.0942L14.9423 40.5574C14.1752 42.2194 13.7779 44.0281 13.7779 45.8586V46.3791L5.43359 42.3039L5.46689 42.1042C5.82802 39.9374 6.6795 37.8817 7.95631 36.0942Z" fill="#FDC726"/>
<path d="M6.98596 49.484L14.36 52.0067L14.3369 52.0994C13.8367 54.0999 13.5838 56.1543 13.5838 58.2164L12.9405 57.6803C10.306 55.4849 8.2596 52.6681 6.98596 49.484Z" fill="#FDC726"/>
</svg>
